<?xml version="1.0" encoding="utf-8"?><!DOCTYPE svg PUBLIC "-//W3C//DTD SVG 1.1//EN" "http://www.w3.org/Graphics/SVG/1.1/DTD/svg11.dtd"><svg version="1.1" xmlns="http://www.w3.org/2000/svg" xmlns:xlink="http://www.w3.org/1999/xlink" x="0px" y="0px" viewBox="0.788 0.203 98.4 125" enable-background="new 0.788 0.203 98.4 100" xml:space="preserve"><g><path d="M81.42,33.148c-1.207-0.075-2.422-0.033-3.643,0.096c0.666-2.095,1.101-4.272,1.184-6.544
		C79.413,14.401,68.269-0.434,54.93,0.224c-9.119,0.449-13.227,8.236-14.766,17.788c-6.568-7.277-17.094-11.529-25.897-5.23
		c-9.994,7.149-8.729,20.643-2.083,29.348c-6.919,2.162-11.739,7.18-11.376,16.799c0.325,8.62,7.954,14.543,15.932,15.406
		c-3.205,8.821-1.202,19.49,7.836,24.033c9.986,5.018,21.415-0.905,26.426-9.873c1.006-1.799,1.808-3.709,2.447-5.695
		c6.502,5.989,16.676,9.042,23.84,2.418c5.531-5.111,6.696-12.063,4.594-18.34c8.251-0.924,16.716-6.633,17.27-15.359
		C99.822,41.011,91.279,33.752,81.42,33.148z M54.934,14.365c2.377-4.932,10.208,6.241,10.926,8.385
		c2.632,7.855-5.449,15.767-12.628,20.128C51.756,33.682,51.151,22.206,54.934,14.365z M20.979,24.038
		c3.942-7.441,12.731,7.188,13.951,9.604c1.488,2.952,2.773,6.181,3.818,9.501c-1.534-0.408-3.116-0.773-4.726-1.095
		C25.159,38.321,16.54,32.417,20.979,24.038z M13.638,57.463c0.796-5.031,7.454-5.261,14.458-3.947
		c1.299,0.565,2.605,1.101,3.927,1.597c-0.598,0.521-1.17,1.065-1.751,1.602c-1.351,0.885-2.729,1.736-4.161,2.527
		C23.708,60.566,12.527,64.482,13.638,57.463z M31.221,87.115c-8.911-1.219,1.6-14.623,3.778-16.995
		c0.865-0.943,1.809-1.829,2.737-2.728c1.699-1.149,3.347-2.378,4.939-3.646C43.052,74.456,41.712,88.546,31.221,87.115z
		 M69.188,75.189c-3.812,4.821-9.989-5.737-11.163-7.966c-0.966-1.829-1.834-3.808-2.594-5.85c-0.008-0.143-0.016-0.283-0.021-0.426
		c0.734,0.272,1.486,0.56,2.243,0.862c0.625,0.271,1.246,0.541,1.882,0.791C66.612,65.702,73.158,70.168,69.188,75.189z
		 M86.033,51.301c-2.572,5.304-11.213,3.555-18.867,0.577c-0.239-0.121-0.484-0.236-0.729-0.354
		c2.421-1.447,4.924-2.754,7.536-3.808C76.468,46.708,89.467,44.212,86.033,51.301z"/></g><text x="0.788" y="115.203" fill="#000000" font-size="5px" font-weight="bold" font-family="'Helvetica Neue', Helvetica, Arial-Unicode, Arial, Sans-serif">Created by melissa zeta</text><text x="0.788" y="120.203" fill="#000000" font-size="5px" font-weight="bold" font-family="'Helvetica Neue', Helvetica, Arial-Unicode, Arial, Sans-serif">from the Noun Project</text></svg>